nColumns=19
nRows=50
DataType=double
version=3
OpenSimVersion=4.1
endheader
time	ground_force_1_vx	ground_force_1_vy	ground_force_1_vz	ground_force_1_px	ground_force_1_py	ground_force_1_pz	ground_force_1_mx	ground_force_1_my	ground_force_1_mz	ground_force_2_vx	ground_force_2_vy	ground_force_2_vz	ground_force_2_px	ground_force_2_py	ground_force_2_pz	ground_force_2_mx	ground_force_2_my	ground_force_2_mz
0.03	0	0	0	-0.000934067	0	-0.000626452	0	0	0	121.903	103.459	-20.4366	0.491382	0	-0.354687	-0	4.42705	-0
0.04	0	0	0	-0.000934066	0	-0.000626453	0	0	0	60.7659	57.429	-11.958	0.43908	0	-0.340367	-0	1.36664	-0
0.05	0	0	0	-0.000934066	0	-0.000626455	0	0	0	0	0	0	-0.000934066	0	-0.000626455	0	0	0
0.06	0	0	0	-0.000934066	0	-0.000626458	0	0	0	0	0	0	-0.000934066	0	-0.000626458	0	0	0
0.07	0	0	0	-0.000934066	0	-0.000626463	0	0	0	0	0	0	-0.000934066	0	-0.000626463	0	0	0
0.08	0	0	0	-0.000934066	0	-0.000626469	0	0	0	0	0	0	-0.000934066	0	-0.000626468	0	0	0
0.09	0	0	0	-0.000934066	0	-0.000626476	0	0	0	0	0	0	-0.000934065	0	-0.000626475	0	0	0
0.1	0	0	0	-0.000934065	0	-0.000626484	0	0	0	0	0	0	-0.000934065	0	-0.000626484	0	0	0
0.11	0	0	0	-0.000934065	0	-0.000626494	0	0	0	0	0	0	-0.000934065	0	-0.000626493	0	0	0
0.12	0	0	0	-0.000934065	0	-0.000626505	0	0	0	0	0	0	-0.000934064	0	-0.000626504	0	0	0
0.13	-18.9319	69.2099	-1.40908	1.50951	0	0.175099	0	-0.675357	0	0	0	0	-0.000934064	0	-0.000626516	0	0	0
0.14	-37.1444	205.264	-11.6596	0.905669	0	-0.231335	-0	0.678569	-0	0	0	0	-0.000934063	0	-0.00062653	0	0	0
0.15	-57.384	476.306	-26.5559	0.884454	0	-0.238135	-0	1.39247	-0	0	0	0	-0.000934062	0	-0.000626544	0	0	0
0.16	-89.4952	828.812	-29.3284	0.872502	0	-0.23919	-0	1.4304	-0	0	0	0	-0.000934062	0	-0.00062656	0	0	0
0.17	-150.062	1103.83	-15.0504	0.861853	0	-0.238477	-0	0.725666	-0	0	0	0	-0.000934061	0	-0.000626577	0	0	0
0.18	-223.216	1236.3	-9.95824	0.84779	0	-0.236679	0	-0.522978	0	0	0	0	-0.00093406	0	-0.000626596	0	0	0
0.19	-266.444	1321.6	-38.3709	0.825499	0	-0.234027	0	-1.89315	0	0	0	0	-0.000934059	0	-0.000626616	0	0	0
0.2	-252.453	1430.39	-69.0818	0.792863	0	-0.23082	0	-3.03988	0	0	0	0	-0.000934058	0	-0.000626637	0	0	0
0.21	-201.955	1542.47	-71.4087	0.752682	0	-0.227567	0	-3.75615	0	0	0	0	-0.000934057	0	-0.000626659	0	0	0
0.22	-137.805	1614.75	-73.7232	0.709723	0	-0.22479	0	-3.84955	0	0	0	0	-0.000934056	0	-0.000626682	0	0	0
0.23	-63.8796	1634.75	-94.1326	0.666645	0	-0.222742	0	-3.30786	0	0	0	0	-0.000934055	0	-0.000626707	0	0	0
0.24	14.8904	1606.62	-102.093	0.623696	0	-0.221455	0	-2.64143	0	0	0	0	-0.000934054	0	-0.000626733	0	0	0
0.25	92.8498	1530.08	-83.85	0.580375	0	-0.220962	0	-2.72466	0	0	0	0	-0.000934053	0	-0.00062676	0	0	0
0.26	164.572	1399.68	-59.9534	0.536525	0	-0.221309	0	-4.02557	0	0	0	0	-0.000934052	0	-0.000626788	0	0	0
0.27	219.956	1215.61	-37.3269	0.49251	0	-0.222377	0	-5.99017	0	0	0	0	-0.00093405	0	-0.000626818	0	0	0
0.28	248.013	991.486	-13.7938	0.448695	0	-0.223768	0	-7.31084	0	0	0	0	-0.000934049	0	-0.000626849	0	0	0
0.29	242.303	747.948	3.0425	0.404366	0	-0.224821	0	-7.00587	0	0	0	0	-0.000934047	0	-0.000626881	0	0	0
0.3	208.256	507.77	9.94992	0.356353	0	-0.224473	0	-5.43993	0	0	0	0	-0.000934046	0	-0.000626914	0	0	0
0.31	159.955	299.906	10.0322	0.297553	0	-0.220331	0	-4.1909	0	0	0	0	-0.000934044	0	-0.000626948	0	0	0
0.32	104.006	149.738	4.93078	0.215219	0	-0.203458	0	-4.51163	0	0	0	0	-0.000934043	0	-0.000626984	0	0	0
0.33	48.4581	65.6724	0.639189	0.122955	0	-0.102049	0	-5.84812	0	0	0	0	-0.000934041	0	-0.000627021	0	0	0
0.34	0	0	0	-0.000934044	0	-0.000627063	0	0	0	0	0	0	-0.00093404	0	-0.000627059	0	0	0
0.35	0	0	0	-0.000934043	0	-0.000627103	0	0	0	0	0	0	-0.000934038	0	-0.000627098	0	0	0
0.36	0	0	0	-0.000934041	0	-0.000627144	0	0	0	0	0	0	-0.000934036	0	-0.000627139	0	0	0
0.37	0	0	0	-0.00093404	0	-0.000627185	0	0	0	0	0	0	-0.000934034	0	-0.00062718	0	0	0
0.38	0	0	0	-0.000934038	0	-0.000627229	0	0	0	0	0	0	-0.000934032	0	-0.000627223	0	0	0
0.39	0	0	0	-0.000934037	0	-0.000627273	0	0	0	0	0	0	-0.00093403	0	-0.000627267	0	0	0
0.4	0	0	0	-0.000934035	0	-0.000627318	0	0	0	0	0	0	-0.000934028	0	-0.000627312	0	0	0
0.41	0	0	0	-0.000934033	0	-0.000627365	0	0	0	-16.9255	54.6212	-7.29172	6.04236	0	1.72535	-0	0.815694	-0
0.42	0	0	0	-0.000934031	0	-0.000627412	0	0	0	-29.5803	162.52	-16.0234	0.931635	0	-0.32111	0	-1.25402	0
0.43	0	0	0	-0.00093403	0	-0.000627461	0	0	0	-33.5532	381.469	-16.0634	0.90739	0	-0.324923	0	-2.09169	0
0.44	0	0	0	-0.000934028	0	-0.000627511	0	0	0	-44.1581	677.104	-0.566538	0.895581	0	-0.326605	0	-1.88135	0
0.45	0	0	0	-0.000934026	0	-0.000627562	0	0	0	-92.1291	927.09	22.6309	0.886583	0	-0.328857	0	-1.43546	0
0.46	0	0	0	-0.000934024	0	-0.000627614	0	0	0	-166.313	1064.47	31.6364	0.874715	0	-0.332217	0	-1.19053	0
0.47	0	0	0	-0.000934022	0	-0.000627667	0	0	0	-224.478	1170.02	21.4694	0.853926	0	-0.336296	0	-1.14807	0
0.48	0	0	0	-0.00093402	0	-0.000627722	0	0	0	-232.671	1316.18	30.9453	0.821723	0	-0.339993	0	-1.13685	0
0.49	0	0	0	-0.000934018	0	-0.000627777	0	0	0	-195.633	1480.88	67.9422	0.782101	0	-0.342584	0	-0.987644	0
0.5	0	0	0	-0.000934016	0	-0.000627834	0	0	0	-139.742	1608.62	89.8007	0.741268	0	-0.344171	0	-0.688727	0
0.51	0	0	0	-0.000934014	0	-0.000627891	0	0	0	-76.9676	1671.89	81.8361	0.702294	0	-0.344971	0	-0.534828	0
0.52	0	0	0	-0.000934012	0	-0.00062795	0	0	0	-13.6761	1671.25	70.1607	0.664675	0	-0.344907	0	-0.932738	0
